<?xml version="1.0" encoding="UTF-8"?>
<svg xmlns="http://www.w3.org/2000/svg" viewBox="0 0 1095 1095" width="1095" height="1095">
<path d="M537.04 0.17C543.72 0.17 550.4 0.17 557.07 0.17C560.05 0.38 563.02 0.59 566 0.8C579 1.58 591.99 2.37 604.99 3.16C606.99 3.4 609 3.64 611 3.88C612.32 3.89 613.64 3.89 614.95 3.9C615.97 4.2 616.98 4.49 618 4.79C619.38 4.82 620.77 4.85 622.15 4.88C623.2 5.21 624.25 5.54 625.3 5.86C632.57 6.88 639.84 7.9 647.11 8.91C648.07 9.22 649.04 9.52 650 9.83C666.08 13.66 682.29 16.84 698.2 21.41C740.25 33.5 781.06 50.71 819 72.52C921.25 131.27 1002.73 222.61 1049.84 330.67C1070.32 377.67 1082.97 427.37 1090.21 478C1090.51 479.01 1090.81 480.01 1091.12 481.02C1091.14 482.68 1091.17 484.34 1091.2 486C1091.41 487.39 1091.62 488.77 1091.83 490.16C1092.63 504.77 1093.43 519.39 1094.23 534C1094.23 543 1094.23 552 1094.23 561C1093.44 575.65 1092.64 590.29 1091.84 604.94C1091.61 606.63 1091.38 608.31 1091.15 610C1089.47 622.35 1087.78 634.71 1086.09 647.06C1085.78 648.04 1085.47 649.02 1085.16 650C1081.14 666.03 1078.25 682.32 1073.6 698.21C1062.88 734.86 1048.73 770.54 1030.74 804.24C972.7 912.96 878.35 1000.55 765.33 1049.83C729.36 1065.51 691.75 1076.62 653.43 1084.75C640.09 1087.58 626.46 1089.12 613 1091.18C611.64 1091.4 610.27 1091.62 608.91 1091.84C597.27 1092.63 585.64 1093.42 574 1094.21C572.32 1094.42 570.63 1094.62 568.95 1094.83C554.59 1094.83 540.22 1094.83 525.86 1094.83C524.24 1094.63 522.62 1094.43 521 1094.23C509.31 1093.44 497.61 1092.65 485.92 1091.85C484.28 1091.62 482.64 1091.39 481 1091.15C479.65 1091.15 478.31 1091.14 476.96 1091.14C475.98 1090.83 474.99 1090.52 474 1090.21C424 1082.88 375.25 1069.78 328.79 1049.67C218.07 1001.72 125.92 916.32 67.4 811.13C47.92 776.11 32.71 738.61 21.4 700.21C16.82 684.63 13.87 668.7 9.84 653C9.54 652.03 9.24 651.06 8.94 650.08C7.55 640.72 6.17 631.36 4.79 622C4.49 621 4.19 620 3.89 619C3.88 617.66 3.87 616.33 3.86 615C3.63 613.29 3.4 611.57 3.17 609.86C2.37 598.9 1.56 587.95 0.76 577C0.56 575.62 0.37 574.25 0.17 572.87C0.17 556.22 0.17 539.57 0.17 522.92C0.37 521.28 0.58 519.64 0.79 518C1.83 504.04 2.87 490.08 3.91 476.12C4.21 475.08 4.51 474.04 4.81 473C12.91 423.22 25.49 375.3 45.4 328.84C99.03 203.63 204.22 98.38 329.73 45.24C376.92 25.26 425.48 12.75 476 4.82C477.17 4.71 478.33 4.61 479.5 4.51C479.62 4.29 479.73 4.07 479.85 3.85C481.23 3.85 482.62 3.84 484 3.84C485.72 3.62 487.43 3.39 489.15 3.17C502.1 2.38 515.05 1.6 528 0.82C531.01 0.6 534.03 0.38 537.04 0.17ZM518.8 41.47C440.9 47.19 374.5 65.44 305.42 101.92C250.22 131.07 200.69 172.38 160.44 219.93C119.61 268.16 87.67 323.82 67.26 383.68C48.29 439.33 38.89 498.68 40.14 557.5C41.25 610.05 50.48 662.41 67.43 712.15C119.78 865.81 247.28 987.38 402.6 1033.78C459.49 1050.77 519.27 1057.15 578.5 1053.72C647.11 1049.74 714.45 1031.17 775.8 1000.33C943.97 915.81 1052.17 741.6 1054.04 553.5C1054.29 528.85 1053.29 503.95 1049.84 479.51C1039.76 408.3 1015.22 340.29 977.38 279.13C947.15 230.26 907.77 186.41 862.73 150.77C815.55 113.44 762.05 84.16 704.74 65.68C645.31 46.53 581.3 36.88 518.8 41.47ZM517.69 54.44C578.08 49.53 639.99 58.88 697.56 76.85C752.36 93.96 804.45 121.52 849.68 156.86C896.96 193.82 937.26 238.63 968.84 289.68C1071.17 455.13 1064.04 671.88 952.35 830.83C906.54 896.02 846.08 947.85 776.21 985.68C715.28 1018.68 645.47 1036.98 576.5 1041C520.49 1044.26 463.76 1038.18 409.86 1022.56C257.65 978.46 132.27 860.08 80.34 710.22C63.96 662.94 55.09 613.48 53.26 563.5C51.13 505.64 59.9 447.41 77.9 392.46C96.93 334.35 127.35 279.88 166.34 232.82C204.08 187.27 250.61 146.64 302.65 118.15C356.66 88.58 411.63 68.98 472.5 59.06C487.49 56.61 502.57 55.66 517.69 54.44ZM315.5 216.79C307.29 231.78 298.52 246.58 289.84 261.31C286.81 266.47 279.11 277.26 277.85 282.53C276.32 288.9 277.63 306.02 277.63 313.5C277.63 335.83 277.63 358.17 277.63 380.5C277.63 392.17 277.63 403.83 277.63 415.5C277.63 420.78 276.58 427.33 277.84 432.47C279.13 437.71 286.91 448.45 289.95 453.61C298.53 468.12 307.1 482.67 315.5 497.28C355.71 497.28 395.91 497.28 436.12 497.28C436.12 537.25 436.12 577.22 436.12 617.18C413.9 617.18 391.67 617.18 369.45 617.18C369.45 595.29 369.45 573.39 369.45 551.5C361.14 549.02 348.46 550.62 339.5 550.62C319.17 550.62 298.83 550.62 278.5 550.62C276.68 556.7 277.63 564.07 277.63 570.5C277.63 583.5 277.63 596.5 277.63 609.5C277.63 615.97 276.11 627.46 278.17 633.29C280.26 639.24 286.58 647.88 289.93 653.62C298.53 668.35 307.53 683.05 315.5 698.11C373.77 698.11 432.04 698.11 490.32 698.11C497.9 681.58 509.37 664.91 518.43 648.92C521.05 644.3 526.59 637.3 527.84 632.38C529.36 626.41 528.08 618.65 528.08 612.5C528.08 598.17 528.08 583.83 528.08 569.5C528.08 549.83 528.08 530.17 528.08 510.5C528.08 503.11 529.38 489.18 527.91 482.55C526.95 478.21 518.26 465.57 515.54 460.95C507.18 446.78 499.49 430.43 489.68 417.34C449.6 417.34 409.53 417.34 369.45 417.34C369.45 377.48 369.45 337.62 369.45 297.75C391.68 297.75 413.9 297.75 436.13 297.75C436.13 319.86 436.13 341.97 436.13 364.08C466.58 364.08 497.04 364.08 527.5 364.08C528.88 357.91 528.08 350.87 528.08 344.5C528.08 332.17 528.08 319.83 528.08 307.5C528.08 301.09 529.47 287.38 527.61 281.84C525.76 276.37 521.34 271.04 518.51 266C512.65 255.57 506.58 245.25 500.6 234.88C497.19 228.98 493.02 223.07 490.5 216.79C432.17 216.79 373.83 216.79 315.5 216.79ZM778.5 397.17C698.4 397.17 618.29 397.17 538.19 397.17C538.19 415.28 538.19 433.39 538.19 451.5C546.58 455.38 554.28 452.99 561.45 461.04C567.4 467.73 566.37 477.2 566.37 485.5C566.37 502.5 566.37 519.5 566.37 536.5C566.37 604.5 566.37 672.5 566.37 740.5C566.37 757.17 566.37 773.83 566.37 790.5C566.37 799.12 567.33 808.64 560.91 815.4C554.5 822.16 546.34 820.87 538.68 824.5C538.68 842.55 538.68 860.6 538.68 878.64C587.95 878.64 637.23 878.64 686.5 878.64C686.5 860.43 686.5 842.22 686.5 824.01C677.66 821.65 668.69 821.86 662.58 813.9C656.06 805.41 658.26 792.49 658.26 782.5C658.26 766.17 658.26 749.83 658.26 733.5C658.26 724.62 657.77 715.57 658.5 706.72C698.5 706.72 738.5 706.72 778.5 706.72C781.77 702.67 784.03 697.64 786.63 693.13C792.72 682.56 798.85 672.01 804.95 661.44C807.85 656.43 815.7 645.44 816.77 640.38C818.25 633.32 816.92 619.28 816.92 611.5C816.92 591.5 816.92 571.5 816.92 551.5C816.92 531.83 816.92 512.17 816.92 492.5C816.92 484.11 818.31 471.46 816.77 463.57C815.79 458.54 807.52 446.87 804.61 441.87C798.6 431.53 792.71 421.12 786.68 410.8C784.04 406.29 781.8 401.23 778.5 397.17ZM725 478.14C725 527.35 725 576.57 725 625.79C702.76 625.79 680.52 625.79 658.28 625.79C658.28 576.57 658.28 527.35 658.28 478.14C680.52 478.14 702.76 478.14 725 478.14Z" fill="#86827f" fill-rule="evenodd" stroke="#86827f" stroke-width="0.25" stroke-linejoin="round"/>
<path d="M528 0.17C531.01 0.17 534.03 0.17 537.04 0.17C534.03 0.38 531.01 0.6 528 0.82C528 0.6 528 0.38 528 0.17ZM557.07 0.17C560.05 0.17 563.02 0.17 566 0.17C566 0.38 566 0.59 566 0.8C563.02 0.59 560.05 0.38 557.07 0.17ZM489.15 3.17C487.43 3.39 485.72 3.62 484 3.84C484.17 3.41 484.33 2.97 484.5 2.54C486.05 2.75 487.6 2.96 489.15 3.17ZM604.99 3.16C606.83 2.96 608.66 2.75 610.5 2.55C610.67 2.99 610.83 3.43 611 3.88C609 3.64 606.99 3.4 604.99 3.16ZM479.85 3.85C479.73 4.07 479.62 4.29 479.5 4.51C478.33 4.61 477.17 4.71 476 4.82C476.17 4.24 476.33 3.66 476.5 3.09C477.62 3.34 478.73 3.6 479.85 3.85ZM614.95 3.9C615.47 3.56 615.98 3.23 616.5 2.89C617 3.52 617.5 4.16 618 4.79C616.98 4.49 615.97 4.2 614.95 3.9ZM622.15 4.88C622.6 4.57 623.05 4.27 623.5 3.97C624.1 4.6 624.7 5.23 625.3 5.86C624.25 5.54 623.2 5.21 622.15 4.88ZM647.11 8.91C647.57 8.64 648.04 8.36 648.5 8.08C649 8.67 649.5 9.25 650 9.83C649.04 9.52 648.07 9.22 647.11 8.91ZM518.8 41.47C581.3 36.88 645.31 46.53 704.74 65.68C762.05 84.16 815.55 113.44 862.73 150.77C907.77 186.41 947.15 230.26 977.38 279.13C1015.22 340.29 1039.76 408.3 1049.84 479.51C1053.29 503.95 1054.29 528.85 1054.04 553.5C1052.17 741.6 943.97 915.81 775.8 1000.33C714.45 1031.17 647.11 1049.74 578.5 1053.72C519.27 1057.15 459.49 1050.77 402.6 1033.78C247.28 987.38 119.78 865.81 67.43 712.15C50.48 662.41 41.25 610.05 40.14 557.5C38.89 498.68 48.29 439.33 67.26 383.68C87.67 323.82 119.61 268.16 160.44 219.93C200.69 172.38 250.22 131.07 305.42 101.92C374.5 65.44 440.9 47.19 518.8 41.47ZM517.69 54.44C502.57 55.66 487.49 56.61 472.5 59.06C411.63 68.98 356.66 88.58 302.65 118.15C250.61 146.64 204.08 187.27 166.34 232.82C127.35 279.88 96.93 334.35 77.9 392.46C59.9 447.41 51.13 505.64 53.26 563.5C55.09 613.48 63.96 662.94 80.34 710.22C132.27 860.08 257.65 978.46 409.86 1022.56C463.76 1038.18 520.49 1044.26 576.5 1041C645.47 1036.98 715.28 1018.68 776.21 985.68C846.08 947.85 906.54 896.02 952.35 830.83C1064.04 671.88 1071.17 455.13 968.84 289.68C937.26 238.63 896.96 193.82 849.68 156.86C804.45 121.52 752.36 93.96 697.56 76.85C639.99 58.88 578.08 49.53 517.69 54.44ZM315.5 216.79C373.83 216.79 432.17 216.79 490.5 216.79C493.02 223.07 497.19 228.98 500.6 234.88C506.58 245.25 512.65 255.57 518.51 266C521.34 271.04 525.76 276.37 527.61 281.84C529.47 287.38 528.08 301.09 528.08 307.5C528.08 319.83 528.08 332.17 528.08 344.5C528.08 350.87 528.88 357.91 527.5 364.08C497.04 364.08 466.58 364.08 436.13 364.08C436.13 341.97 436.13 319.86 436.13 297.75C413.9 297.75 391.68 297.75 369.45 297.75C369.45 337.62 369.45 377.48 369.45 417.34C409.53 417.34 449.6 417.34 489.68 417.34C499.49 430.43 507.18 446.78 515.54 460.95C518.26 465.57 526.95 478.21 527.91 482.55C529.38 489.18 528.08 503.11 528.08 510.5C528.08 530.17 528.08 549.83 528.08 569.5C528.08 583.83 528.08 598.17 528.08 612.5C528.08 618.65 529.36 626.41 527.84 632.38C526.59 637.3 521.05 644.3 518.43 648.92C509.37 664.91 497.9 681.58 490.32 698.11C432.04 698.11 373.77 698.11 315.5 698.11C307.53 683.05 298.53 668.35 289.93 653.62C286.58 647.88 280.26 639.24 278.17 633.29C276.11 627.46 277.63 615.97 277.63 609.5C277.63 596.5 277.63 583.5 277.63 570.5C277.63 564.07 276.68 556.7 278.5 550.62C298.83 550.62 319.17 550.62 339.5 550.62C348.46 550.62 361.14 549.02 369.45 551.5C369.45 573.39 369.45 595.29 369.45 617.18C391.67 617.18 413.9 617.18 436.12 617.18C436.12 577.22 436.12 537.25 436.12 497.28C395.91 497.28 355.71 497.28 315.5 497.28C307.1 482.67 298.53 468.12 289.95 453.61C286.91 448.45 279.13 437.71 277.84 432.47C276.58 427.33 277.63 420.78 277.63 415.5C277.63 403.83 277.63 392.17 277.63 380.5C277.63 358.17 277.63 335.83 277.63 313.5C277.63 306.02 276.32 288.9 277.85 282.53C279.11 277.26 286.81 266.47 289.84 261.31C298.52 246.58 307.29 231.78 315.5 216.79ZM778.5 397.17C781.8 401.23 784.04 406.29 786.68 410.8C792.71 421.12 798.6 431.53 804.61 441.87C807.52 446.87 815.79 458.54 816.77 463.57C818.31 471.46 816.92 484.11 816.92 492.5C816.92 512.17 816.92 531.83 816.92 551.5C816.92 571.5 816.92 591.5 816.92 611.5C816.92 619.28 818.25 633.32 816.77 640.38C815.7 645.44 807.85 656.43 804.95 661.44C798.85 672.01 792.72 682.56 786.63 693.13C784.03 697.64 781.77 702.67 778.5 706.72C738.5 706.72 698.5 706.72 658.5 706.72C657.77 715.57 658.26 724.62 658.26 733.5C658.26 749.83 658.26 766.17 658.26 782.5C658.26 792.49 656.06 805.41 662.58 813.9C668.69 821.86 677.66 821.65 686.5 824.01C686.5 842.22 686.5 860.43 686.5 878.64C637.23 878.64 587.95 878.64 538.68 878.64C538.68 860.6 538.68 842.55 538.68 824.5C546.34 820.87 554.5 822.16 560.91 815.4C567.33 808.64 566.37 799.12 566.37 790.5C566.37 773.83 566.37 757.17 566.37 740.5C566.37 672.5 566.37 604.5 566.37 536.5C566.37 519.5 566.37 502.5 566.37 485.5C566.37 477.2 567.4 467.73 561.45 461.04C554.28 452.99 546.58 455.38 538.19 451.5C538.19 433.39 538.19 415.28 538.19 397.17C618.29 397.17 698.4 397.17 778.5 397.17ZM4.81 473C4.51 474.04 4.21 475.08 3.91 476.12C3.57 475.58 3.23 475.04 2.89 474.5C3.53 474 4.17 473.5 4.81 473ZM725 478.14C702.76 478.14 680.52 478.14 658.28 478.14C658.28 527.35 658.28 576.57 658.28 625.79C680.52 625.79 702.76 625.79 725 625.79C725 576.57 725 527.35 725 478.14ZM1090.21 478C1090.86 478.5 1091.52 479 1092.17 479.5C1091.82 480.01 1091.47 480.51 1091.12 481.02C1090.81 480.01 1090.51 479.01 1090.21 478ZM1091.2 486C1091.62 486.17 1092.04 486.33 1092.46 486.5C1092.25 487.72 1092.04 488.94 1091.83 490.16C1091.62 488.77 1091.41 487.39 1091.2 486ZM0.17 518C0.37 518 0.58 518 0.79 518C0.58 519.64 0.37 521.28 0.17 522.92C0.17 521.28 0.17 519.64 0.17 518ZM1094.23 534C1094.43 534 1094.63 534 1094.83 534C1094.83 543 1094.83 552 1094.83 561C1094.63 561 1094.43 561 1094.23 561C1094.23 552 1094.23 543 1094.23 534ZM0.17 572.87C0.37 574.25 0.56 575.62 0.76 577C0.56 577 0.37 577 0.17 577C0.17 575.62 0.17 574.25 0.17 572.87ZM1091.84 604.94C1092.05 606.46 1092.25 607.98 1092.46 609.5C1092.02 609.67 1091.59 609.83 1091.15 610C1091.38 608.31 1091.61 606.63 1091.84 604.94ZM3.17 609.86C3.4 611.57 3.63 613.29 3.86 615C3.42 614.83 2.98 614.67 2.54 614.5C2.75 612.95 2.96 611.4 3.17 609.86ZM3.89 619C4.19 620 4.49 621 4.79 622C4.15 621.5 3.52 621 2.89 620.5C3.22 620 3.56 619.5 3.89 619ZM1086.09 647.06C1086.37 647.54 1086.64 648.02 1086.92 648.5C1086.33 649 1085.75 649.5 1085.16 650C1085.47 649.02 1085.78 648.04 1086.09 647.06ZM8.94 650.08C9.24 651.06 9.54 652.03 9.84 653C9.26 652.5 8.67 652 8.08 651.5C8.37 651.03 8.65 650.56 8.94 650.08ZM474 1090.21C474.99 1090.52 475.98 1090.83 476.96 1091.14C476.48 1091.49 475.99 1091.85 475.5 1092.21C475 1091.54 474.5 1090.87 474 1090.21ZM481 1091.15C482.64 1091.39 484.28 1091.62 485.92 1091.85C484.45 1092.06 482.97 1092.26 481.5 1092.46C481.33 1092.02 481.17 1091.59 481 1091.15ZM613 1091.18C612.83 1091.61 612.67 1092.04 612.5 1092.46C611.3 1092.26 610.1 1092.05 608.91 1091.84C610.27 1091.62 611.64 1091.4 613 1091.18ZM521 1094.23C522.62 1094.43 524.24 1094.63 525.86 1094.83C524.24 1094.83 522.62 1094.83 521 1094.83C521 1094.63 521 1094.43 521 1094.23ZM574 1094.21C574 1094.42 574 1094.62 574 1094.83C572.32 1094.83 570.63 1094.83 568.95 1094.83C570.63 1094.62 572.32 1094.42 574 1094.21Z" fill="#fcfdfe" fill-rule="evenodd" stroke="#fcfdfe" stroke-width="0.25" stroke-linejoin="round"/>
</svg>